<svg width="256" height="256" viewBox="0 0 256 256" fill="none" xmlns="http://www.w3.org/2000/svg">
<rect width="256" height="256" fill="#0029FF"/>
<path fill-rule="evenodd" clip-rule="evenodd" d="M105.305 97.8132L96.9707 66.7111L114.798 61.9343L123.132 93.0364C129.727 117.65 115.12 142.951 90.5058 149.546L59.4037 157.88L54.627 140.053L85.729 131.719C100.497 127.762 109.262 112.582 105.305 97.8132ZM108.84 171.232L86.0719 194L73.0216 180.95L95.7899 158.181C113.809 140.163 143.023 140.163 161.041 158.181L183.81 180.95L170.759 194L147.991 171.232C137.18 160.42 119.651 160.42 108.84 171.232ZM159.206 66.7111L150.872 97.8132C146.915 112.582 155.679 127.762 170.448 131.719L201.55 140.053L196.773 157.88L165.671 149.546C141.057 142.951 126.45 117.65 133.045 93.0364L141.379 61.9343L159.206 66.7111Z" fill="white"/>
</svg>
