<svg width="47" height="42" viewBox="0 0 47 42" fill="none" xmlns="http://www.w3.org/2000/svg">
<g id="Group 1">
<path id="Union" fill-rule="evenodd" clip-rule="evenodd" d="M15.9812 11.3144L13.3531 1.50635L18.9749 0L21.6029 9.80804C23.6828 17.5701 19.0764 25.5485 11.3144 27.6283L1.50635 30.2564L0 24.6346L9.80804 22.0066C14.4653 20.7587 17.2291 15.9716 15.9812 11.3144ZM16.9819 34.4669L9.80195 41.6469L5.68654 37.5315L12.8665 30.3515C18.5487 24.6693 27.7614 24.6693 33.4436 30.3515L40.6236 37.5315L36.5082 41.6469L29.3282 34.4669C25.9189 31.0576 20.3913 31.0576 16.9819 34.4669ZM32.9792 1.50635L30.3511 11.3144C29.1032 15.9716 31.867 20.7587 36.5243 22.0066L46.3323 24.6346L44.826 30.2564L35.0179 27.6283C27.2559 25.5485 22.6495 17.5701 24.7294 9.80804L27.3574 0L32.9792 1.50635Z" fill="white"/>
</g>
</svg>
