<svg width="296" height="87" viewBox="0 0 296 87" fill="none" xmlns="http://www.w3.org/2000/svg">
<path fill-rule="evenodd" clip-rule="evenodd" d="M33.1455 23.3921L27.7121 3.11432L39.3349 0L44.7683 20.2778C49.0683 36.3255 39.5448 52.8206 23.4971 57.1206L3.2193 62.554L0.10498 50.9312L20.3828 45.4978C30.0114 42.9178 35.7255 33.0208 33.1455 23.3921ZM35.2141 71.2591L20.3697 86.1035L11.8612 77.595L26.7056 62.7507C38.4534 51.0029 57.5002 51.0029 69.248 62.7507L84.0924 77.595L75.5839 86.1035L60.7395 71.2591C53.6909 64.2105 42.2627 64.2105 35.2141 71.2591ZM68.2881 3.11432L62.8547 23.3921C60.2747 33.0208 65.9888 42.9178 75.6174 45.4978L95.8952 50.9312L92.7809 62.554L72.5031 57.1206C56.4554 52.8206 46.9319 36.3255 51.2319 20.2778L56.6653 0L68.2881 3.11432Z" fill="white"/>
<path d="M284.714 65C280.007 65 275.728 63.0052 273 59.1774L276.958 54.8643C278.884 57.4522 281.933 59.0157 284.767 59.0157C287.281 59.0157 289.047 57.6678 289.047 55.9426C289.047 54.8104 288.298 53.84 286.853 53.1391C286.372 52.8696 285.195 52.3844 283.323 51.6835C281.505 50.9826 280.274 50.4435 279.633 50.12C276.37 48.5026 274.765 46.0226 274.765 42.68C274.765 40.1461 275.728 38.0435 277.653 36.4261C279.579 34.8087 282.147 34 285.302 34C289.421 34 292.737 35.4557 295.251 38.313L291.614 42.7878C289.742 40.793 287.549 39.7687 285.088 39.7687C282.895 39.7687 281.558 40.9548 281.558 42.5183C281.558 43.8122 282.414 44.7826 284.072 45.3757C288.244 47.047 290.598 48.0174 291.079 48.287C294.342 50.0661 296 52.5461 296 55.727C296 58.3687 294.984 60.5791 292.898 62.3583C290.812 64.1374 288.084 65 284.714 65Z" fill="white"/>
<path d="M273 64H264.556L254.861 51.5263L252.776 53.4211V64H246V24H252.776V45.6316L263.67 35.4211H272.322L259.552 47.2105L273 64Z" fill="white"/>
<path d="M182.974 65C174.978 65 170 60.1978 170 52.0504V35H176.937V52.0504C176.937 55.9892 179.214 58.5791 182.974 58.5791C186.786 58.5791 189.063 55.9892 189.063 52.0504V35H196V52.0504C196 60.1978 191.075 65 182.974 65Z" fill="white"/>
<path d="M156.217 39.4211V35.6842H163V76H156.165V60.6842C153.713 63.5263 150.635 64.9474 146.983 64.9474C142.965 64.9474 139.626 63.5263 136.965 60.6316C134.304 57.7368 133 54.1579 133 49.9474C133 45.7895 134.304 42.2632 136.965 39.3684C139.626 36.4737 142.965 35 146.983 35C150.635 35 153.713 36.4737 156.217 39.4211ZM156.374 50C156.374 47.579 155.591 45.5263 154.078 43.8421C152.565 42.1579 150.583 41.3158 148.13 41.3158C145.678 41.3158 143.696 42.1579 142.183 43.8421C140.67 45.5263 139.887 47.579 139.887 50C139.887 52.4737 140.67 54.5263 142.183 56.2105C143.696 57.8421 145.678 58.6842 148.13 58.6842C150.583 58.6842 152.565 57.8421 154.078 56.2105C155.591 54.5263 156.374 52.4737 156.374 50Z" fill="white"/>
<path fill-rule="evenodd" clip-rule="evenodd" d="M210 64V35H203V64H210Z" fill="white"/>
<path fill-rule="evenodd" clip-rule="evenodd" d="M228.345 42.1385L241 42.1385L241 35L228.345 35C222.08 35 217 40.1935 217 46.6L217 64L223.982 64L223.982 46.6C223.982 44.136 225.935 42.1385 228.345 42.1385Z" fill="white"/>
</svg>
